<?xml version="1.0" encoding="utf-8"?>
<svg id="visual" viewBox="0 426.6 960 113.399994" width="960" height="113.399994" xmlns="http://www.w3.org/2000/svg" xmlns:xlink="http://www.w3.org/1999/xlink" version="1.1">
  <path d="M0 461L40 463.7C80 466.3 160 471.7 240 470.5C320 469.3 400 461.7 480 454.8C560 448 640 442 720 440.7C800 439.3 880 442.7 920 444.3L960 446L960 541L920 541C880 541 800 541 720 541C640 541 560 541 480 541C400 541 320 541 240 541C160 541 80 541 40 541L0 541Z" fill="#502064" stroke-linecap="round" stroke-linejoin="miter"></path>
</svg>