<svg width="24" height="24" viewBox="0 0 24 24" fill="none" xmlns="http://www.w3.org/2000/svg">
<path d="M13.4138 11.9877L23.7068 1.69471C23.889 1.50611 23.9898 1.2535 23.9875 0.991313C23.9852 0.729114 23.88 0.478301 23.6946 0.292893C23.5092 0.107485 23.2584 0.0023163 22.9962 3.78016e-05C22.734 -0.00224059 22.4814 0.098554 22.2928 0.280712L11.9998 10.5737L1.70679 0.280712C1.51819 0.098554 1.26558 -0.00224059 1.00339 3.78016e-05C0.741189 0.0023163 0.490376 0.107485 0.304968 0.292893C0.11956 0.478301 0.0143908 0.729114 0.0121124 0.991313C0.00983399 1.2535 0.110628 1.50611 0.292787 1.69471L10.5858 11.9877L0.292787 22.2807C0.105315 22.4682 0 22.7226 0 22.9877C0 23.2529 0.105315 23.5072 0.292787 23.6947C0.480314 23.8822 0.734622 23.9875 0.999787 23.9875C1.26495 23.9875 1.51926 23.8822 1.70679 23.6947L11.9998 13.4017L22.2928 23.6947C22.4803 23.8822 22.7346 23.9875 22.9998 23.9875C23.265 23.9875 23.5193 23.8822 23.7068 23.6947C23.8943 23.5072 23.9996 23.2529 23.9996 22.9877C23.9996 22.7226 23.8943 22.4682 23.7068 22.2807L13.4138 11.9877Z" fill="white"/>
</svg>
