<svg width="30" height="30" viewBox="0 0 30 30" fill="none" xmlns="http://www.w3.org/2000/svg">
<path d="M28.6956 13.6964H1.30433C0.58396 13.6964 0 14.2804 0 15.0008C0 15.7211 0.58396 16.3051 1.30433 16.3051H28.6956C29.416 16.3051 29.9999 15.7211 29.9999 15.0008C30 14.2804 29.416 13.6964 28.6956 13.6964Z" fill="white"/>
<path d="M1.30433 7.1742H28.6956C29.416 7.1742 29.9999 6.59024 29.9999 5.86988C29.9999 5.14951 29.416 4.56555 28.6956 4.56555H1.30433C0.58396 4.56555 0 5.14951 0 5.86988C0 6.59024 0.58396 7.1742 1.30433 7.1742Z" fill="white"/>
<path d="M28.6956 22.8262H1.30433C0.58396 22.8262 0 23.4103 0 24.1306C0 24.851 0.58396 25.435 1.30433 25.435H28.6956C29.416 25.435 29.9999 24.851 29.9999 24.1306C30 23.4103 29.416 22.8262 28.6956 22.8262Z" fill="white"/>
</svg>
